<?xml version="1.0" encoding="utf-8" standalone="yes"?>
<svg xmlns="http://www.w3.org/2000/svg" version="1.1" baseProfile="tiny" width="57" height="129" viewBox="-0.75 -0.75 9.5 21.5" fill="none" stroke="#000000" stroke-linejoin="round" stroke-linecap="round" stroke-width="0.5">
  <rect x="-0.75" y="-0.75" width="100%" height="100%" stroke="none" fill="#fafafa"/><path class="grid-line grid-line--minor" stroke-width="0.166" stroke="#ebebeb" stroke-linecap="square" stroke-linejoin="miter" d="M0,1h8M0,3h8M0,5h8M0,7h8M0,9h8M0,11h8M0,13h8M0,15h8M0,17h8M0,19h8M1,0V20M3,0V20M5,0V20M7,0V20"/>
  <path class="grid-line grid-line--medium" stroke-width="0.166" stroke="#ebebeb" stroke-linecap="square" stroke-linejoin="miter" d="M0,2h8M0,6h8M0,10h8M0,14h8M0,18h8M2,0V20M6,0V20"/>
  <path class="grid-line grid-line--major" stroke-width="0.166" stroke="#c7c7c7" stroke-linecap="square" stroke-linejoin="miter" d="M0,0h8M0,4h8M0,12h8M0,20h8M0,0V20M4,0V20M8,0V20"/>
  <path class="grid-line grid-line--major grid-line--sky" stroke-width="0.166" stroke="#858585" stroke-linecap="square" stroke-linejoin="miter" d="M0,8h8"/>
  <path class="grid-line grid-line--major grid-line--earth" stroke-width="0.166" stroke="#858585" stroke-linecap="square" stroke-linejoin="miter" d="M0,16h8"/>
  <path d="M0,10a2,2 0 1,1 4,0a2,2 0 1,1 4,0q0,3 -4,6q-4,-3 -4,-6"></path>
</svg>