<?xml version="1.0" encoding="utf-8"?>
<svg xmlns="http://www.w3.org/2000/svg" data-generator="bliss-svg-builder" width="84" height="129" viewBox="-0.75 -0.75 14 21.5">
  <g class="bliss-content" fill="none" stroke="#000000" stroke-linejoin="round" stroke-linecap="round" stroke-width="0.5">
    <path d="M2.25,8h8M2.25,16h8M2.25,8v8M10.25,8v8M0,5l2,-1M0,5l2,1M3,4.5a0.5,0.5 0 1,1 0.5,0.5M3.5,5v0.25"/><g stroke-width="0.33325"><path d="M3.333375,6a0.166625,0.166625 0 1,1 0.33325,0a0.166625,0.166625 0 1,1 -0.33325,0"/></g><path d="M5.5,4a1.25,1.25 0 0,0 0,2M6.5,6l1,-2M7.5,4l1,2"/><g stroke-width="0.33325"><path d="M9.333375,4a0.166625,0.166625 0 1,1 0.33325,0a0.166625,0.166625 0 1,1 -0.33325,0"/></g><path d="M10.5,4l1,2M11.5,6l1,-2"/>
  </g>
</svg>