<?xml version="1.0" encoding="utf-8"?>
<svg xmlns="http://www.w3.org/2000/svg" data-generator="bliss-svg-builder" width="60" height="129" viewBox="-0.75 -0.75 10 21.5">
  <g class="bliss-content" fill="none" stroke="#000000" stroke-linejoin="round" stroke-linecap="round" stroke-width="0.5">
    <path d="M0.25,8h8M0.25,16h8M0.25,8v8M8.25,8v8M0,6l1,-2M1,4l1,2M3,5l2,-1M3,5l2,1M6,4.5a0.5,0.5 0 1,1 0.5,0.5M6.5,5v0.25"/><g stroke-width="0.33325"><path d="M6.333375,6a0.166625,0.166625 0 1,1 0.33325,0a0.166625,0.166625 0 1,1 -0.33325,0"/></g><path d="M8.5,4a1.25,1.25 0 0,0 0,2"/>
  </g>
</svg>