<?xml version="1.0" encoding="utf-8"?>
<svg xmlns="http://www.w3.org/2000/svg" data-generator="bliss-svg-builder" width="93" height="129" viewBox="-0.75 -0.75 15.5 21.5">
  <g class="bliss-content" fill="none" stroke="#000000" stroke-linejoin="round" stroke-linecap="round" stroke-width="0.5">
    <path d="M0,12h8M0,16l2,-4M2,12l2,4M4,16l2,-4M6,12l2,4M8,12l4,-4M12,8l2,2M1.5,4l2,2M1.5,6l2,-2M4.5,4l1,2M5.5,6l1,-2"/><g stroke-width="0.33325"><path d="M7.333375,4a0.166625,0.166625 0 1,1 0.33325,0a0.166625,0.166625 0 1,1 -0.33325,0"/></g>
  </g>
</svg>